<?xml version="1.0" ?><svg style="enable-background:new 0 0 64 64;" version="1.1" viewBox="0 0 64 64" xml:space="preserve" xmlns="http://www.w3.org/2000/svg" xmlns:xlink="http://www.w3.org/1999/xlink"><style type="text/css">
	.st0{fill:#FFEEA9;}
	.st1{fill:#D32436;}
	.st2{fill:#8DD1D3;}
	.st3{fill:#330D00;}
	.st4{fill:none;stroke:#330D00;stroke-linecap:round;stroke-linejoin:round;stroke-miterlimit:10;}
</style><g id="_x34_0-Id_Card"/><g id="_x33_9-Formula"/><g id="_x33_8-Elbow"/><g id="_x33_7-Diploma"/><g id="_x33_6-Laptop"/><g id="_x33_5-Brush"/><g id="_x33_4-Baseball"/><g id="_x33_3-Student"/><g id="_x33_2-Highlighter"/><g id="_x33_1-Ruler"/><g id="_x33_0-Caliper"/><g id="_x32_9-Ruler_Elbow"/><g id="_x32_8-Abacus"/><g id="_x32_7-Id_Card"/><g id="_x32_6-Eraser"/><g id="_x32_5-Pencil"/><g id="_x32_4-Ink"/><g id="_x32_3-Graduation_Cap"><g><g><polygon class="st2" points="62.9,25.4 49.7,30.1 32,36.4 14.3,30.1 1.1,25.4 32,14.3    "/></g><g><path class="st1" d="M49.7,30.1v17.3c0,0-11,2.2-17.7,2.2s-17.7-2.2-17.7-2.2V30.1L32,36.4L49.7,30.1z"/></g><g><path class="st0" d="M58.5,45.2h-4.4v-5.6c0-0.6,0.4-1,1-1h2.4c0.6,0,1,0.4,1,1V45.2z"/></g><g><path class="st3" d="M63.3,24.3l-30.9-11c-0.2-0.1-0.5-0.1-0.7,0l-30.9,11c-0.4,0.2-0.7,0.6-0.7,1s0.3,0.9,0.7,1l12.5,4.5v16.6     c0,0.5,0.4,1,0.9,1.1c0.5,0.1,11.2,2.2,17.9,2.2s17.4-2.1,17.9-2.2c0.5-0.1,0.9-0.6,0.9-1.1V30.9l4.4-1.6v8.4     c-1.3,0.5-2.2,1.7-2.2,3.1v4.4c0,0.6,0.5,1.1,1.1,1.1h4.4c0.6,0,1.1-0.5,1.1-1.1v-4.4c0-1.4-0.9-2.7-2.2-3.1v-9.2l5.9-2.1     c0.4-0.2,0.7-0.6,0.7-1S63.7,24.5,63.3,24.3z M57.4,44.1h-2.2v-3.3c0-0.6,0.5-1.1,1.1-1.1c0.6,0,1.1,0.5,1.1,1.1V44.1z      M48.6,46.5c-2.7,0.5-11.2,2-16.6,2s-13.8-1.5-16.6-2V31.7l16.2,5.8c0.1,0,0.2,0.1,0.4,0.1s0.3,0,0.4-0.1l16.2-5.8V46.5z      M49.3,29.1C49.3,29.1,49.3,29.1,49.3,29.1L32,35.2l-17.3-6.2c0,0,0,0,0,0L4.4,25.4L32,15.5l27.6,9.9L49.3,29.1z"/></g></g></g><g id="_x32_2-_Sling_Bag"/><g id="_x32_1-Rugby_Ball"/><g id="_x32_0-Clock"/><g id="_x31_9-Certificate"/><g id="_x31_8-Idea"/><g id="_x31_7-Bookshelf"/><g id="_x31_6-Formula"/><g id="_x31_5-Bell"/><g id="_x31_4-Magnifying_Glass"/><g id="_x31_3-Calculator"/><g id="_x31_2-Eyeglasses"/><g id="_x31_1-Bus"/><g id="_x31_0-Trophy"/><g id="_x39_-Globe"/><g id="_x38_-Basket_Ball"/><g id="_x37_-Pen"/><g id="_x36_-Board"/><g id="_x35_-Bag"/><g id="_x34_-Exam"/><g id="_x33_-Book"/><g id="_x32_-Ruler"/><g id="_x31_-Building"/></svg>